<mxfile host="app.diagrams.net" modified="2024-02-21T08:50:33.602Z" agent="Mozilla/5.0 (Windows NT 10.0; Win64; x64) AppleWebKit/537.36 (KHTML, like Gecko) Chrome/121.0.0.0 Safari/537.36" etag="-MWU81kC6WAAu59uDIr2" version="23.1.5" type="device">
  <diagram name="Page-1" id="5JiDFI3WewGr3-ip7Ion">
    <mxGraphModel dx="1050" dy="557" grid="1" gridSize="10" guides="1" tooltips="1" connect="1" arrows="1" fold="1" page="1" pageScale="1" pageWidth="850" pageHeight="1100" math="0" shadow="0">
      <root>
        <mxCell id="0" />
        <mxCell id="1" parent="0" />
        <mxCell id="vvIKkdWecAWrTg5pNRUY-5" value="" style="edgeStyle=none;rounded=0;orthogonalLoop=1;jettySize=auto;html=1;" parent="1" source="vvIKkdWecAWrTg5pNRUY-1" edge="1">
          <mxGeometry relative="1" as="geometry">
            <mxPoint x="375" y="150" as="targetPoint" />
          </mxGeometry>
        </mxCell>
        <mxCell id="vvIKkdWecAWrTg5pNRUY-1" value="&lt;font style=&quot;font-size: 14px;&quot;&gt;Web App&lt;/font&gt;" style="rounded=1;whiteSpace=wrap;html=1;" parent="1" vertex="1">
          <mxGeometry x="310" y="30" width="130" height="70" as="geometry" />
        </mxCell>
        <mxCell id="vvIKkdWecAWrTg5pNRUY-3" value="" style="endArrow=none;html=1;rounded=0;" parent="1" edge="1">
          <mxGeometry width="50" height="50" relative="1" as="geometry">
            <mxPoint x="110" y="150" as="sourcePoint" />
            <mxPoint x="500" y="150" as="targetPoint" />
          </mxGeometry>
        </mxCell>
        <mxCell id="vvIKkdWecAWrTg5pNRUY-6" value="" style="endArrow=classic;html=1;rounded=0;" parent="1" edge="1">
          <mxGeometry width="50" height="50" relative="1" as="geometry">
            <mxPoint x="110" y="150" as="sourcePoint" />
            <mxPoint x="110" y="190" as="targetPoint" />
          </mxGeometry>
        </mxCell>
        <mxCell id="vvIKkdWecAWrTg5pNRUY-7" value="&lt;font style=&quot;font-size: 14px;&quot;&gt;Sign Up&lt;/font&gt;" style="rounded=1;whiteSpace=wrap;html=1;" parent="1" vertex="1">
          <mxGeometry x="50" y="190" width="120" height="40" as="geometry" />
        </mxCell>
        <mxCell id="vvIKkdWecAWrTg5pNRUY-8" value="" style="endArrow=classic;html=1;rounded=0;exitX=0.5;exitY=1;exitDx=0;exitDy=0;" parent="1" source="vvIKkdWecAWrTg5pNRUY-7" edge="1">
          <mxGeometry width="50" height="50" relative="1" as="geometry">
            <mxPoint x="410" y="370" as="sourcePoint" />
            <mxPoint x="110" y="270" as="targetPoint" />
          </mxGeometry>
        </mxCell>
        <mxCell id="vvIKkdWecAWrTg5pNRUY-11" value="&lt;font style=&quot;font-size: 14px;&quot;&gt;Provide basic health information through a questionnaire&lt;/font&gt;" style="rounded=1;whiteSpace=wrap;html=1;" parent="1" vertex="1">
          <mxGeometry x="30" y="270" width="160" height="80" as="geometry" />
        </mxCell>
        <mxCell id="vvIKkdWecAWrTg5pNRUY-13" value="" style="endArrow=classic;html=1;rounded=0;exitX=0.5;exitY=1;exitDx=0;exitDy=0;" parent="1" source="vvIKkdWecAWrTg5pNRUY-11" edge="1">
          <mxGeometry width="50" height="50" relative="1" as="geometry">
            <mxPoint x="410" y="450" as="sourcePoint" />
            <mxPoint x="110" y="400" as="targetPoint" />
          </mxGeometry>
        </mxCell>
        <mxCell id="vvIKkdWecAWrTg5pNRUY-14" value="&lt;font style=&quot;font-size: 14px;&quot;&gt;Run a ML model on the received information&lt;/font&gt;" style="rounded=1;whiteSpace=wrap;html=1;" parent="1" vertex="1">
          <mxGeometry x="50" y="400" width="120" height="80" as="geometry" />
        </mxCell>
        <mxCell id="vvIKkdWecAWrTg5pNRUY-15" value="" style="endArrow=classic;html=1;rounded=0;exitX=0.5;exitY=1;exitDx=0;exitDy=0;" parent="1" source="vvIKkdWecAWrTg5pNRUY-14" edge="1">
          <mxGeometry width="50" height="50" relative="1" as="geometry">
            <mxPoint x="410" y="580" as="sourcePoint" />
            <mxPoint x="110" y="530" as="targetPoint" />
          </mxGeometry>
        </mxCell>
        <mxCell id="vvIKkdWecAWrTg5pNRUY-18" value="&lt;font style=&quot;font-size: 14px;&quot;&gt;Generation of a health profile/card .&amp;nbsp;&lt;br&gt;This is what doctors will see, while requesting for an appointment&lt;/font&gt;" style="rounded=0;whiteSpace=wrap;html=1;" parent="1" vertex="1">
          <mxGeometry x="30" y="530" width="160" height="100" as="geometry" />
        </mxCell>
        <mxCell id="vvIKkdWecAWrTg5pNRUY-19" value="" style="endArrow=classic;html=1;rounded=0;" parent="1" edge="1">
          <mxGeometry width="50" height="50" relative="1" as="geometry">
            <mxPoint x="500" y="150" as="sourcePoint" />
            <mxPoint x="500" y="190" as="targetPoint" />
          </mxGeometry>
        </mxCell>
        <mxCell id="vvIKkdWecAWrTg5pNRUY-21" value="Log In" style="rounded=1;whiteSpace=wrap;html=1;" parent="1" vertex="1">
          <mxGeometry x="440" y="190" width="120" height="40" as="geometry" />
        </mxCell>
        <mxCell id="vvIKkdWecAWrTg5pNRUY-22" value="" style="endArrow=none;html=1;rounded=0;entryX=0.5;entryY=1;entryDx=0;entryDy=0;" parent="1" target="vvIKkdWecAWrTg5pNRUY-21" edge="1">
          <mxGeometry width="50" height="50" relative="1" as="geometry">
            <mxPoint x="500" y="280" as="sourcePoint" />
            <mxPoint x="490" y="320" as="targetPoint" />
          </mxGeometry>
        </mxCell>
        <mxCell id="vvIKkdWecAWrTg5pNRUY-23" value="" style="endArrow=none;html=1;rounded=0;" parent="1" edge="1">
          <mxGeometry width="50" height="50" relative="1" as="geometry">
            <mxPoint x="290" y="280" as="sourcePoint" />
            <mxPoint x="710" y="280" as="targetPoint" />
          </mxGeometry>
        </mxCell>
        <mxCell id="vvIKkdWecAWrTg5pNRUY-25" value="" style="endArrow=classic;html=1;rounded=0;entryX=0.5;entryY=0;entryDx=0;entryDy=0;" parent="1" edge="1" target="vvIKkdWecAWrTg5pNRUY-26">
          <mxGeometry width="50" height="50" relative="1" as="geometry">
            <mxPoint x="290" y="280" as="sourcePoint" />
            <mxPoint x="290" y="320" as="targetPoint" />
          </mxGeometry>
        </mxCell>
        <mxCell id="vvIKkdWecAWrTg5pNRUY-26" value="&lt;font style=&quot;font-size: 14px;&quot;&gt;Update your health card information&lt;/font&gt;" style="rounded=1;whiteSpace=wrap;html=1;" parent="1" vertex="1">
          <mxGeometry x="230" y="300" width="120" height="60" as="geometry" />
        </mxCell>
        <mxCell id="vvIKkdWecAWrTg5pNRUY-27" value="" style="endArrow=classic;html=1;rounded=0;exitX=0.5;exitY=1;exitDx=0;exitDy=0;entryX=0.5;entryY=0;entryDx=0;entryDy=0;" parent="1" source="vvIKkdWecAWrTg5pNRUY-26" edge="1" target="vvIKkdWecAWrTg5pNRUY-28">
          <mxGeometry width="50" height="50" relative="1" as="geometry">
            <mxPoint x="440" y="540" as="sourcePoint" />
            <mxPoint x="290" y="410" as="targetPoint" />
          </mxGeometry>
        </mxCell>
        <mxCell id="vvIKkdWecAWrTg5pNRUY-28" value="&lt;font style=&quot;font-size: 14px;&quot;&gt;Trigger the same ML model to regenerate the profile for updated information&lt;/font&gt;" style="rounded=1;whiteSpace=wrap;html=1;" parent="1" vertex="1">
          <mxGeometry x="215" y="390" width="150" height="100" as="geometry" />
        </mxCell>
        <mxCell id="vvIKkdWecAWrTg5pNRUY-29" value="" style="endArrow=classic;html=1;rounded=0;" parent="1" edge="1">
          <mxGeometry width="50" height="50" relative="1" as="geometry">
            <mxPoint x="500" y="280" as="sourcePoint" />
            <mxPoint x="500" y="320" as="targetPoint" />
          </mxGeometry>
        </mxCell>
        <mxCell id="vvIKkdWecAWrTg5pNRUY-30" value="&lt;font style=&quot;font-size: 14px;&quot;&gt;Book Appointment with nearby doctors or experts&lt;/font&gt;" style="rounded=1;whiteSpace=wrap;html=1;" parent="1" vertex="1">
          <mxGeometry x="435" y="410" width="130" height="70" as="geometry" />
        </mxCell>
        <mxCell id="vvIKkdWecAWrTg5pNRUY-31" value="&lt;font style=&quot;font-size: 14px;&quot;&gt;Routine Checkup&lt;/font&gt;" style="rounded=1;whiteSpace=wrap;html=1;" parent="1" vertex="1">
          <mxGeometry x="440" y="320" width="120" height="40" as="geometry" />
        </mxCell>
        <mxCell id="vvIKkdWecAWrTg5pNRUY-32" value="" style="endArrow=classic;html=1;rounded=0;exitX=0.5;exitY=1;exitDx=0;exitDy=0;" parent="1" source="vvIKkdWecAWrTg5pNRUY-31" edge="1">
          <mxGeometry width="50" height="50" relative="1" as="geometry">
            <mxPoint x="440" y="420" as="sourcePoint" />
            <mxPoint x="500" y="410" as="targetPoint" />
          </mxGeometry>
        </mxCell>
        <mxCell id="vvIKkdWecAWrTg5pNRUY-33" value="" style="endArrow=classic;html=1;rounded=0;" parent="1" edge="1">
          <mxGeometry width="50" height="50" relative="1" as="geometry">
            <mxPoint x="710" y="280" as="sourcePoint" />
            <mxPoint x="710" y="310" as="targetPoint" />
          </mxGeometry>
        </mxCell>
        <mxCell id="vvIKkdWecAWrTg5pNRUY-34" value="&lt;font style=&quot;font-size: 14px;&quot;&gt;Want to analyze your scans before taking next steps&lt;/font&gt;" style="rounded=1;whiteSpace=wrap;html=1;" parent="1" vertex="1">
          <mxGeometry x="640" y="310" width="140" height="90" as="geometry" />
        </mxCell>
        <mxCell id="vvIKkdWecAWrTg5pNRUY-38" value="" style="edgeStyle=none;rounded=0;orthogonalLoop=1;jettySize=auto;html=1;" parent="1" source="vvIKkdWecAWrTg5pNRUY-35" target="vvIKkdWecAWrTg5pNRUY-37" edge="1">
          <mxGeometry relative="1" as="geometry" />
        </mxCell>
        <mxCell id="vvIKkdWecAWrTg5pNRUY-35" value="&lt;font style=&quot;font-size: 14px;&quot;&gt;Upload image/pdf of X-rays, MRI, CT scans&lt;/font&gt;" style="rounded=1;whiteSpace=wrap;html=1;" parent="1" vertex="1">
          <mxGeometry x="645" y="460" width="130" height="70" as="geometry" />
        </mxCell>
        <mxCell id="vvIKkdWecAWrTg5pNRUY-36" value="" style="endArrow=classic;html=1;rounded=0;exitX=0.5;exitY=1;exitDx=0;exitDy=0;" parent="1" source="vvIKkdWecAWrTg5pNRUY-34" edge="1">
          <mxGeometry width="50" height="50" relative="1" as="geometry">
            <mxPoint x="700" y="420" as="sourcePoint" />
            <mxPoint x="710" y="460" as="targetPoint" />
          </mxGeometry>
        </mxCell>
        <mxCell id="vvIKkdWecAWrTg5pNRUY-37" value="&lt;font style=&quot;font-size: 14px;&quot;&gt;Provide some information along with the scan&lt;/font&gt;" style="whiteSpace=wrap;html=1;rounded=1;" parent="1" vertex="1">
          <mxGeometry x="650" y="560" width="120" height="60" as="geometry" />
        </mxCell>
        <mxCell id="vvIKkdWecAWrTg5pNRUY-39" value="" style="endArrow=classic;html=1;rounded=0;exitX=0.5;exitY=1;exitDx=0;exitDy=0;" parent="1" source="vvIKkdWecAWrTg5pNRUY-37" edge="1">
          <mxGeometry width="50" height="50" relative="1" as="geometry">
            <mxPoint x="390" y="630" as="sourcePoint" />
            <mxPoint x="710" y="660" as="targetPoint" />
          </mxGeometry>
        </mxCell>
        <mxCell id="vvIKkdWecAWrTg5pNRUY-40" value="&lt;font style=&quot;font-size: 14px;&quot;&gt;Run a ML model on the scan and the information&lt;/font&gt;" style="rounded=1;whiteSpace=wrap;html=1;" parent="1" vertex="1">
          <mxGeometry x="650" y="660" width="120" height="60" as="geometry" />
        </mxCell>
        <mxCell id="vvIKkdWecAWrTg5pNRUY-41" value="" style="endArrow=classic;html=1;rounded=0;exitX=0.5;exitY=1;exitDx=0;exitDy=0;" parent="1" source="vvIKkdWecAWrTg5pNRUY-40" edge="1">
          <mxGeometry width="50" height="50" relative="1" as="geometry">
            <mxPoint x="390" y="780" as="sourcePoint" />
            <mxPoint x="710" y="760" as="targetPoint" />
          </mxGeometry>
        </mxCell>
        <mxCell id="vvIKkdWecAWrTg5pNRUY-42" value="&lt;font style=&quot;font-size: 14px;&quot;&gt;Generate a report in pdf format for the scan&lt;/font&gt;" style="rounded=1;whiteSpace=wrap;html=1;" parent="1" vertex="1">
          <mxGeometry x="637.5" y="760" width="145" height="80" as="geometry" />
        </mxCell>
        <mxCell id="vvIKkdWecAWrTg5pNRUY-43" value="" style="endArrow=classic;html=1;rounded=0;exitX=0.5;exitY=1;exitDx=0;exitDy=0;entryX=1;entryY=0.5;entryDx=0;entryDy=0;" parent="1" source="vvIKkdWecAWrTg5pNRUY-42" target="vvIKkdWecAWrTg5pNRUY-30" edge="1">
          <mxGeometry width="50" height="50" relative="1" as="geometry">
            <mxPoint x="730" y="920" as="sourcePoint" />
            <mxPoint x="580" y="470" as="targetPoint" />
            <Array as="points">
              <mxPoint x="710" y="880" />
              <mxPoint x="600" y="880" />
              <mxPoint x="600" y="445" />
            </Array>
          </mxGeometry>
        </mxCell>
      </root>
    </mxGraphModel>
  </diagram>
</mxfile>
